<svg xmlns="http://www.w3.org/2000/svg" width="800" height="600" viewBox="0 0 800 600">
  <rect width="800" height="600" fill="#0F172A"/>
  <!-- Sidebar -->
  <rect x="0" y="0" width="200" height="600" fill="#1E293B"/>
  <rect x="20" y="20" width="160" height="24" rx="4" fill="#334155"/>
  <rect x="20" y="60" width="120" height="16" rx="3" fill="#475569"/>
  <rect x="20" y="90" width="160" height="32" rx="6" fill="#6366F1" opacity="0.15"/>
  <rect x="20" y="90" width="160" height="32" rx="6" stroke="#6366F1" stroke-width="1" fill="none"/>
  <rect x="20" y="134" width="160" height="32" rx="6" fill="transparent"/>
  <rect x="20" y="178" width="160" height="32" rx="6" fill="transparent"/>
  <rect x="36" y="98" width="80" height="8" rx="2" fill="#6366F1"/>
  <rect x="36" y="142" width="70" height="8" rx="2" fill="#94A3B8"/>
  <rect x="36" y="186" width="60" height="8" rx="2" fill="#94A3B8"/>
  <!-- Header -->
  <rect x="200" y="0" width="600" height="56" fill="#1E293B"/>
  <rect x="220" y="18" width="140" height="20" rx="4" fill="#334155"/>
  <rect x="680" y="14" width="80" height="28" rx="6" fill="#6366F1"/>
  <!-- Cards -->
  <rect x="220" y="76" width="175" height="100" rx="10" fill="#1E293B"/>
  <rect x="240" y="96" width="60" height="10" rx="2" fill="#94A3B8"/>
  <rect x="240" y="116" width="100" height="24" rx="4" fill="#F8FAFC"/>
  <rect x="240" y="150" width="80" height="8" rx="2" fill="#22C55E"/>
  <rect x="415" y="76" width="175" height="100" rx="10" fill="#1E293B"/>
  <rect x="435" y="96" width="60" height="10" rx="2" fill="#94A3B8"/>
  <rect x="435" y="116" width="100" height="24" rx="4" fill="#F8FAFC"/>
  <rect x="435" y="150" width="80" height="8" rx="2" fill="#6366F1"/>
  <rect x="610" y="76" width="175" height="100" rx="10" fill="#1E293B"/>
  <rect x="630" y="96" width="60" height="10" rx="2" fill="#94A3B8"/>
  <rect x="630" y="116" width="100" height="24" rx="4" fill="#F8FAFC"/>
  <rect x="630" y="150" width="80" height="8" rx="2" fill="#FBBF24"/>
  <!-- Chart area -->
  <rect x="220" y="196" width="370" height="200" rx="10" fill="#1E293B"/>
  <rect x="240" y="216" width="80" height="12" rx="3" fill="#F8FAFC"/>
  <polyline points="260,360 300,320 340,340 380,290 420,300 460,260 500,270 540,240" stroke="#6366F1" stroke-width="2" fill="none"/>
  <!-- Table -->
  <rect x="220" y="416" width="370" height="160" rx="10" fill="#1E293B"/>
  <rect x="240" y="436" width="80" height="12" rx="3" fill="#F8FAFC"/>
  <rect x="240" y="462" width="330" height="1" fill="#334155"/>
  <rect x="240" y="476" width="200" height="8" rx="2" fill="#94A3B8"/>
  <rect x="240" y="500" width="200" height="8" rx="2" fill="#94A3B8"/>
  <rect x="240" y="524" width="200" height="8" rx="2" fill="#94A3B8"/>
  <rect x="240" y="548" width="200" height="8" rx="2" fill="#94A3B8"/>
  <!-- Right panel -->
  <rect x="610" y="196" width="175" height="380" rx="10" fill="#1E293B"/>
  <rect x="630" y="216" width="80" height="12" rx="3" fill="#F8FAFC"/>
  <rect x="630" y="246" width="135" height="40" rx="6" fill="#0F172A"/>
  <rect x="630" y="300" width="135" height="40" rx="6" fill="#0F172A"/>
  <rect x="630" y="354" width="135" height="40" rx="6" fill="#0F172A"/>
</svg>
