<svg xmlns="http://www.w3.org/2000/svg" width="800" height="600" viewBox="0 0 800 600">
  <defs>
    <linearGradient id="cardGrad" x1="0" y1="0" x2="0" y2="1">
      <stop offset="0%" stop-color="#1E293B"/>
      <stop offset="100%" stop-color="#162032"/>
    </linearGradient>
    <linearGradient id="accentGrad" x1="0" y1="0" x2="1" y2="1">
      <stop offset="0%" stop-color="#818CF8"/>
      <stop offset="100%" stop-color="#6366F1"/>
    </linearGradient>
    <linearGradient id="greenGrad" x1="0" y1="0" x2="0" y2="1">
      <stop offset="0%" stop-color="#34D399"/>
      <stop offset="100%" stop-color="#10B981"/>
    </linearGradient>
    <linearGradient id="chartLine" x1="0" y1="0" x2="1" y2="0">
      <stop offset="0%" stop-color="#818CF8"/>
      <stop offset="100%" stop-color="#C084FC"/>
    </linearGradient>
    <linearGradient id="chartArea" x1="0" y1="0" x2="0" y2="1">
      <stop offset="0%" stop-color="#6366F1" stop-opacity="0.3"/>
      <stop offset="100%" stop-color="#6366F1" stop-opacity="0"/>
    </linearGradient>
    <filter id="glow">
      <feGaussianBlur stdDeviation="3" result="blur"/>
      <feMerge><feMergeNode in="blur"/><feMergeNode in="SourceGraphic"/></feMerge>
    </filter>
    <clipPath id="chartClip"><rect x="220" y="240" width="355" height="155"/></clipPath>
  </defs>

  <!-- Background -->
  <rect width="800" height="600" fill="#0B1120"/>

  <!-- Sidebar -->
  <rect x="0" y="0" width="190" height="600" fill="#111827"/>
  <rect x="0" y="0" width="190" height="600" fill="#111827" opacity="0.8"/>

  <!-- Logo area -->
  <circle cx="38" cy="32" r="14" fill="url(#accentGrad)"/>
  <text x="38" y="37" font-family="Arial" font-size="13" font-weight="bold" fill="white" text-anchor="middle">D</text>
  <text x="62" y="37" font-family="Arial" font-size="14" font-weight="600" fill="#F1F5F9">DesignOS</text>

  <!-- Sidebar nav items -->
  <rect x="12" y="72" width="166" height="36" rx="8" fill="#6366F1" opacity="0.12"/>
  <rect x="12" y="72" width="166" height="36" rx="8" stroke="#6366F1" stroke-width="0.5" fill="none" opacity="0.4"/>
  <rect x="28" y="84" width="14" height="14" rx="3" fill="#818CF8" opacity="0.7"/>
  <text x="52" y="94" font-family="Arial" font-size="12" fill="#A5B4FC" font-weight="500">Dashboard</text>

  <rect x="28" y="124" width="14" height="14" rx="3" fill="#475569"/>
  <text x="52" y="134" font-family="Arial" font-size="12" fill="#64748B">Analytics</text>

  <rect x="28" y="160" width="14" height="14" rx="3" fill="#475569"/>
  <text x="52" y="170" font-family="Arial" font-size="12" fill="#64748B">Projects</text>

  <rect x="28" y="196" width="14" height="14" rx="3" fill="#475569"/>
  <text x="52" y="206" font-family="Arial" font-size="12" fill="#64748B">Messages</text>
  <circle cx="152" cy="200" r="8" fill="#EF4444"/>
  <text x="152" y="204" font-family="Arial" font-size="8" fill="white" text-anchor="middle" font-weight="bold">3</text>

  <rect x="28" y="232" width="14" height="14" rx="3" fill="#475569"/>
  <text x="52" y="242" font-family="Arial" font-size="12" fill="#64748B">Settings</text>

  <!-- Sidebar bottom user -->
  <rect x="12" y="548" width="166" height="40" rx="8" fill="#1E293B"/>
  <circle cx="36" cy="568" r="14" fill="#334155"/>
  <circle cx="36" cy="568" r="14" fill="url(#greenGrad)" opacity="0.3"/>
  <text x="36" y="572" font-family="Arial" font-size="10" fill="white" text-anchor="middle" font-weight="bold">JK</text>
  <text x="58" y="564" font-family="Arial" font-size="11" fill="#E2E8F0" font-weight="500">Jane Kim</text>
  <text x="58" y="578" font-family="Arial" font-size="9" fill="#64748B">Pro Plan</text>
  <circle cx="162" cy="568" r="4" fill="#10B981"/>

  <!-- Header area -->
  <text x="210" y="36" font-family="Arial" font-size="18" font-weight="700" fill="#F1F5F9">Good morning, Jane</text>
  <text x="210" y="54" font-family="Arial" font-size="12" fill="#64748B">Here's what's happening today</text>

  <!-- Header right -->
  <rect x="630" y="16" width="36" height="36" rx="8" fill="#1E293B"/>
  <circle cx="648" cy="34" r="3" fill="#64748B"/>
  <circle cx="648" cy="28" r="5" stroke="#64748B" stroke-width="1.5" fill="none"/>
  <circle cx="658" cy="22" r="3" fill="#EF4444"/>

  <rect x="678" y="16" width="36" height="36" rx="8" fill="#1E293B"/>
  <rect x="688" y="28" width="16" height="2" rx="1" fill="#64748B"/>
  <rect x="688" y="33" width="12" height="2" rx="1" fill="#64748B"/>
  <rect x="688" y="38" width="16" height="2" rx="1" fill="#64748B"/>

  <rect x="726" y="16" width="60" height="36" rx="18" fill="url(#accentGrad)"/>
  <text x="756" y="39" font-family="Arial" font-size="11" fill="white" text-anchor="middle" font-weight="600">+ New</text>

  <!-- Stat Cards Row -->
  <!-- Card 1: Revenue -->
  <rect x="210" y="76" width="175" height="100" rx="12" fill="url(#cardGrad)"/>
  <rect x="210" y="76" width="175" height="100" rx="12" stroke="#1E293B" stroke-width="0.5"/>
  <text x="230" y="100" font-family="Arial" font-size="11" fill="#64748B">Total Revenue</text>
  <text x="230" y="128" font-family="Arial" font-size="24" font-weight="700" fill="#F1F5F9">$48.2K</text>
  <text x="230" y="152" font-family="Arial" font-size="10" fill="#10B981">+12.5%</text>
  <text x="275" y="152" font-family="Arial" font-size="10" fill="#475569">vs last month</text>
  <!-- Mini sparkline -->
  <polyline points="340,142 348,138 354,140 362,130 368,132 374,122" stroke="#10B981" stroke-width="1.5" fill="none" opacity="0.6"/>

  <!-- Card 2: Users -->
  <rect x="397" y="76" width="175" height="100" rx="12" fill="url(#cardGrad)"/>
  <rect x="397" y="76" width="175" height="100" rx="12" stroke="#1E293B" stroke-width="0.5"/>
  <text x="417" y="100" font-family="Arial" font-size="11" fill="#64748B">Active Users</text>
  <text x="417" y="128" font-family="Arial" font-size="24" font-weight="700" fill="#F1F5F9">2,847</text>
  <text x="417" y="152" font-family="Arial" font-size="10" fill="#10B981">+8.1%</text>
  <text x="456" y="152" font-family="Arial" font-size="10" fill="#475569">vs last month</text>
  <polyline points="527,142 533,136 539,139 545,128 551,132 557,124" stroke="#818CF8" stroke-width="1.5" fill="none" opacity="0.6"/>

  <!-- Card 3: Conversion -->
  <rect x="584" y="76" width="200" height="100" rx="12" fill="url(#cardGrad)"/>
  <rect x="584" y="76" width="200" height="100" rx="12" stroke="#1E293B" stroke-width="0.5"/>
  <text x="604" y="100" font-family="Arial" font-size="11" fill="#64748B">Conversion Rate</text>
  <text x="604" y="128" font-family="Arial" font-size="24" font-weight="700" fill="#F1F5F9">3.24%</text>
  <text x="604" y="152" font-family="Arial" font-size="10" fill="#EF4444">-0.8%</text>
  <text x="640" y="152" font-family="Arial" font-size="10" fill="#475569">vs last month</text>
  <polyline points="728,124 734,128 740,130 746,138 752,136 758,142" stroke="#EF4444" stroke-width="1.5" fill="none" opacity="0.6"/>

  <!-- Main Chart Card -->
  <rect x="210" y="192" width="365" height="200" rx="12" fill="url(#cardGrad)"/>
  <rect x="210" y="192" width="365" height="200" rx="12" stroke="#1E293B" stroke-width="0.5"/>
  <text x="230" y="218" font-family="Arial" font-size="13" font-weight="600" fill="#F1F5F9">Revenue Overview</text>
  <text x="480" y="218" font-family="Arial" font-size="10" fill="#6366F1" font-weight="500">This Month</text>
  <text x="540" y="218" font-family="Arial" font-size="10" fill="#475569">Last Month</text>

  <!-- Y-axis labels -->
  <text x="232" y="252" font-family="Arial" font-size="9" fill="#475569">50K</text>
  <text x="232" y="290" font-family="Arial" font-size="9" fill="#475569">40K</text>
  <text x="232" y="328" font-family="Arial" font-size="9" fill="#475569">30K</text>
  <text x="232" y="366" font-family="Arial" font-size="9" fill="#475569">20K</text>

  <!-- Grid lines -->
  <line x1="255" y1="248" x2="560" y2="248" stroke="#1E293B" stroke-width="0.5"/>
  <line x1="255" y1="286" x2="560" y2="286" stroke="#1E293B" stroke-width="0.5"/>
  <line x1="255" y1="324" x2="560" y2="324" stroke="#1E293B" stroke-width="0.5"/>
  <line x1="255" y1="362" x2="560" y2="362" stroke="#1E293B" stroke-width="0.5"/>

  <!-- Chart area fill -->
  <path d="M265,350 L305,320 L345,330 L385,280 L425,290 L465,255 L505,260 L545,240 L545,370 L265,370 Z" fill="url(#chartArea)" clip-path="url(#chartClip)"/>

  <!-- Chart line -->
  <polyline points="265,350 305,320 345,330 385,280 425,290 465,255 505,260 545,240" stroke="url(#chartLine)" stroke-width="2.5" fill="none" filter="url(#glow)"/>

  <!-- Dashed previous month -->
  <polyline points="265,360 305,345 345,350 385,310 425,320 465,290 505,300 545,280" stroke="#475569" stroke-width="1" fill="none" stroke-dasharray="4,4"/>

  <!-- Data points -->
  <circle cx="465" cy="255" r="4" fill="#818CF8" stroke="#0B1120" stroke-width="2"/>
  <circle cx="545" cy="240" r="4" fill="#818CF8" stroke="#0B1120" stroke-width="2"/>

  <!-- X-axis labels -->
  <text x="265" y="385" font-family="Arial" font-size="9" fill="#475569" text-anchor="middle">Mon</text>
  <text x="345" y="385" font-family="Arial" font-size="9" fill="#475569" text-anchor="middle">Wed</text>
  <text x="425" y="385" font-family="Arial" font-size="9" fill="#475569" text-anchor="middle">Fri</text>
  <text x="505" y="385" font-family="Arial" font-size="9" fill="#475569" text-anchor="middle">Sun</text>

  <!-- Right Panel: Recent Activity -->
  <rect x="587" y="192" width="197" height="200" rx="12" fill="url(#cardGrad)"/>
  <rect x="587" y="192" width="197" height="200" rx="12" stroke="#1E293B" stroke-width="0.5"/>
  <text x="607" y="218" font-family="Arial" font-size="13" font-weight="600" fill="#F1F5F9">Recent Activity</text>

  <!-- Activity items -->
  <circle cx="615" cy="246" r="10" fill="#6366F1" opacity="0.15"/>
  <text x="615" y="250" font-family="Arial" font-size="8" fill="#818CF8" text-anchor="middle">AP</text>
  <text x="632" y="243" font-family="Arial" font-size="10" fill="#E2E8F0" font-weight="500">Alex Park</text>
  <text x="632" y="256" font-family="Arial" font-size="9" fill="#475569">New purchase</text>
  <text x="770" y="250" font-family="Arial" font-size="9" fill="#475569" text-anchor="end">2m</text>

  <circle cx="615" cy="284" r="10" fill="#10B981" opacity="0.15"/>
  <text x="615" y="288" font-family="Arial" font-size="8" fill="#34D399" text-anchor="middle">SL</text>
  <text x="632" y="281" font-family="Arial" font-size="10" fill="#E2E8F0" font-weight="500">Sara Lee</text>
  <text x="632" y="294" font-family="Arial" font-size="9" fill="#475569">Upgraded plan</text>
  <text x="770" y="288" font-family="Arial" font-size="9" fill="#475569" text-anchor="end">15m</text>

  <circle cx="615" cy="322" r="10" fill="#F59E0B" opacity="0.15"/>
  <text x="615" y="326" font-family="Arial" font-size="8" fill="#FBBF24" text-anchor="middle">MK</text>
  <text x="632" y="319" font-family="Arial" font-size="10" fill="#E2E8F0" font-weight="500">Min Kim</text>
  <text x="632" y="332" font-family="Arial" font-size="9" fill="#475569">Left feedback</text>
  <text x="770" y="326" font-family="Arial" font-size="9" fill="#475569" text-anchor="end">1h</text>

  <circle cx="615" cy="360" r="10" fill="#EC4899" opacity="0.15"/>
  <text x="615" y="364" font-family="Arial" font-size="8" fill="#F472B6" text-anchor="middle">JW</text>
  <text x="632" y="357" font-family="Arial" font-size="10" fill="#E2E8F0" font-weight="500">Jay Won</text>
  <text x="632" y="370" font-family="Arial" font-size="9" fill="#475569">Signed up</text>
  <text x="770" y="364" font-family="Arial" font-size="9" fill="#475569" text-anchor="end">3h</text>

  <!-- Bottom Row: Table -->
  <rect x="210" y="408" width="574" height="180" rx="12" fill="url(#cardGrad)"/>
  <rect x="210" y="408" width="574" height="180" rx="12" stroke="#1E293B" stroke-width="0.5"/>
  <text x="230" y="434" font-family="Arial" font-size="13" font-weight="600" fill="#F1F5F9">Recent Transactions</text>
  <rect x="690" y="418" width="80" height="28" rx="6" fill="#1E293B" stroke="#334155" stroke-width="0.5"/>
  <text x="730" y="436" font-family="Arial" font-size="10" fill="#94A3B8" text-anchor="middle">View All</text>

  <!-- Table header -->
  <text x="230" y="462" font-family="Arial" font-size="10" fill="#475569" font-weight="600">Customer</text>
  <text x="420" y="462" font-family="Arial" font-size="10" fill="#475569" font-weight="600">Amount</text>
  <text x="540" y="462" font-family="Arial" font-size="10" fill="#475569" font-weight="600">Status</text>
  <text x="680" y="462" font-family="Arial" font-size="10" fill="#475569" font-weight="600">Date</text>
  <line x1="225" y1="470" x2="770" y2="470" stroke="#1E293B" stroke-width="0.5"/>

  <!-- Row 1 -->
  <circle cx="242" cy="490" r="10" fill="#334155"/>
  <text x="242" y="494" font-family="Arial" font-size="8" fill="#94A3B8" text-anchor="middle">EM</text>
  <text x="260" y="488" font-family="Arial" font-size="11" fill="#E2E8F0">Emma Wilson</text>
  <text x="260" y="500" font-family="Arial" font-size="9" fill="#475569">emma@email.com</text>
  <text x="420" y="494" font-family="Arial" font-size="11" fill="#F1F5F9" font-weight="500">$1,250.00</text>
  <rect x="530" y="482" width="56" height="20" rx="10" fill="#10B981" opacity="0.12"/>
  <text x="558" y="496" font-family="Arial" font-size="9" fill="#10B981" text-anchor="middle" font-weight="500">Paid</text>
  <text x="680" y="494" font-family="Arial" font-size="10" fill="#64748B">Mar 20</text>

  <!-- Row 2 -->
  <circle cx="242" cy="524" r="10" fill="#334155"/>
  <text x="242" y="528" font-family="Arial" font-size="8" fill="#94A3B8" text-anchor="middle">DK</text>
  <text x="260" y="522" font-family="Arial" font-size="11" fill="#E2E8F0">David Kim</text>
  <text x="260" y="534" font-family="Arial" font-size="9" fill="#475569">david@email.com</text>
  <text x="420" y="528" font-family="Arial" font-size="11" fill="#F1F5F9" font-weight="500">$890.00</text>
  <rect x="530" y="516" width="56" height="20" rx="10" fill="#F59E0B" opacity="0.12"/>
  <text x="558" y="530" font-family="Arial" font-size="9" fill="#F59E0B" text-anchor="middle" font-weight="500">Pending</text>
  <text x="680" y="528" font-family="Arial" font-size="10" fill="#64748B">Mar 19</text>

  <!-- Row 3 -->
  <circle cx="242" cy="558" r="10" fill="#334155"/>
  <text x="242" y="562" font-family="Arial" font-size="8" fill="#94A3B8" text-anchor="middle">SJ</text>
  <text x="260" y="556" font-family="Arial" font-size="11" fill="#E2E8F0">Soo-jin Park</text>
  <text x="260" y="568" font-family="Arial" font-size="9" fill="#475569">soojin@email.com</text>
  <text x="420" y="562" font-family="Arial" font-size="11" fill="#F1F5F9" font-weight="500">$2,100.00</text>
  <rect x="530" y="550" width="56" height="20" rx="10" fill="#10B981" opacity="0.12"/>
  <text x="558" y="564" font-family="Arial" font-size="9" fill="#10B981" text-anchor="middle" font-weight="500">Paid</text>
  <text x="680" y="562" font-family="Arial" font-size="10" fill="#64748B">Mar 18</text>
</svg>