<svg xmlns="http://www.w3.org/2000/svg" width="800" height="600" viewBox="0 0 800 600">
  <rect width="800" height="600" fill="#FAFAFA"/>
  <!-- Nav -->
  <rect x="0" y="0" width="800" height="56" fill="#FFFFFF"/>
  <rect x="40" y="18" width="100" height="20" rx="4" fill="#1A1A1A"/>
  <rect x="560" y="18" width="50" height="12" rx="2" fill="#737373"/>
  <rect x="630" y="18" width="50" height="12" rx="2" fill="#737373"/>
  <rect x="700" y="14" width="70" height="28" rx="6" fill="#1A1A1A"/>
  <rect x="700" y="14" width="70" height="28" rx="6" fill="#1A1A1A"/>
  <!-- Hero -->
  <rect x="120" y="140" width="560" height="48" rx="4" fill="#1A1A1A"/>
  <rect x="180" y="200" width="440" height="16" rx="3" fill="#A3A3A3"/>
  <rect x="220" y="228" width="360" height="12" rx="3" fill="#A3A3A3"/>
  <rect x="300" y="270" width="100" height="40" rx="8" fill="#1A1A1A"/>
  <rect x="420" y="270" width="100" height="40" rx="8" stroke="#D4D4D4" stroke-width="1" fill="none"/>
  <!-- Feature grid -->
  <rect x="40" y="370" width="230" height="180" rx="10" fill="#FFFFFF" stroke="#E5E5E5" stroke-width="1"/>
  <circle cx="80" cy="410" r="16" fill="#F5F5F5"/>
  <rect x="60" y="440" width="120" height="14" rx="3" fill="#1A1A1A"/>
  <rect x="60" y="464" width="190" height="8" rx="2" fill="#A3A3A3"/>
  <rect x="60" y="480" width="170" height="8" rx="2" fill="#A3A3A3"/>
  <rect x="285" y="370" width="230" height="180" rx="10" fill="#FFFFFF" stroke="#E5E5E5" stroke-width="1"/>
  <circle cx="325" cy="410" r="16" fill="#F5F5F5"/>
  <rect x="305" y="440" width="120" height="14" rx="3" fill="#1A1A1A"/>
  <rect x="305" y="464" width="190" height="8" rx="2" fill="#A3A3A3"/>
  <rect x="305" y="480" width="170" height="8" rx="2" fill="#A3A3A3"/>
  <rect x="530" y="370" width="230" height="180" rx="10" fill="#FFFFFF" stroke="#E5E5E5" stroke-width="1"/>
  <circle cx="570" cy="410" r="16" fill="#F5F5F5"/>
  <rect x="550" y="440" width="120" height="14" rx="3" fill="#1A1A1A"/>
  <rect x="550" y="464" width="190" height="8" rx="2" fill="#A3A3A3"/>
  <rect x="550" y="480" width="170" height="8" rx="2" fill="#A3A3A3"/>
</svg>
